<svg width="120" height="52" viewBox="0 0 120 52" fill="none" xmlns="http://www.w3.org/2000/svg">
<path d="M45.6009 39.0966V13.0222L22.7853 0L0 13.0222V39.0074L22.7853 52L45.6009 39.0966ZM4.93639 15.9954L22.7853 5.79764L40.6645 15.9954V36.391L22.7853 46.5592L4.93639 36.391V15.9954Z" fill="url(#paint0_linear_11_23)"/>
<path d="M43.5489 37.7235V14.0634L23.0148 2.24691L2.50805 14.0634V37.6425L23.0148 49.4321L43.5489 37.7235ZM6.9508 16.7612L23.0148 7.50773L39.1061 16.7612V35.2684L23.0148 44.4951L6.9508 35.2684V16.7612Z" fill="url(#paint1_linear_11_23)"/>
<path d="M58.7887 19.9106V21.1479H54.6816V32.9547H50.5744V21.1479H46.5099V19.9106H58.7887Z" fill="black"/>
<path d="M64.3396 32.9547H60.424V22.7837H64.3396V32.9547ZM60.3601 21.2528V18.925H64.4247V21.2528H60.3601Z" fill="black"/>
<path d="M72.4506 22.7837H76.9833C78.104 22.7837 78.6644 23.3359 78.6644 24.4404V32.9547H74.7488V24.6711C74.7488 24.4055 74.7063 24.2307 74.6212 24.1468C74.5502 24.0629 74.3729 24.021 74.0891 24.021H72.0037C71.4929 24.021 71.2376 24.2377 71.2376 24.6711V32.9547H67.322V22.7837H71.2376V23.3919C71.4362 22.9864 71.8405 22.7837 72.4506 22.7837Z" fill="black"/>
<path d="M85.1786 27.1247H89.0303V24.6711C89.0303 24.4055 88.9878 24.2307 88.9026 24.1468C88.8175 24.0629 88.6402 24.021 88.3706 24.021H85.8383C85.5545 24.021 85.3701 24.0629 85.285 24.1468C85.214 24.2307 85.1786 24.4055 85.1786 24.6711V27.1247ZM82.9441 22.7837H91.1371C92.2579 22.7837 92.8182 23.3359 92.8182 24.4404V28.362H85.1786V31.0673C85.1786 31.3469 85.214 31.5287 85.285 31.6126C85.3701 31.6825 85.5545 31.7174 85.8383 31.7174H88.3494C88.6331 31.7174 88.8104 31.6825 88.8814 31.6126C88.9665 31.5287 89.009 31.3469 89.009 31.0673V29.7252H92.797V31.298C92.797 32.4025 92.2366 32.9547 91.1158 32.9547H82.9441C81.8234 32.9547 81.263 32.4025 81.263 31.298V24.4404C81.263 23.3359 81.8234 22.7837 82.9441 22.7837Z" fill="black"/>
<path d="M102.697 22.7837H106.612V32.9547H102.697V32.3466C102.498 32.752 102.094 32.9547 101.484 32.9547H96.951C95.8302 32.9547 95.2698 32.4025 95.2698 31.298V22.7837H99.1854V31.0673C99.1854 31.3469 99.2209 31.5287 99.2918 31.6126C99.3769 31.6825 99.5614 31.7174 99.8451 31.7174H101.931C102.441 31.7174 102.697 31.5007 102.697 31.0673V22.7837Z" fill="black"/>
<path d="M116.106 31.0673V29.1589C116.106 28.8933 116.063 28.7185 115.978 28.6347C115.893 28.5508 115.716 28.5088 115.446 28.5088H110.828C109.707 28.5088 109.147 27.9566 109.147 26.8521V24.4404C109.147 23.3359 109.707 22.7837 110.828 22.7837H118.17C119.291 22.7837 119.851 23.3359 119.851 24.4404V25.9504H116.063V24.6711C116.063 24.4055 116.021 24.2307 115.935 24.1468C115.85 24.0629 115.673 24.021 115.403 24.021H113.722C113.439 24.021 113.254 24.0629 113.169 24.1468C113.098 24.2307 113.063 24.4055 113.063 24.6711V26.6214C113.063 26.901 113.098 27.0828 113.169 27.1667C113.254 27.2366 113.439 27.2715 113.722 27.2715H118.319C119.44 27.2715 120 27.8238 120 28.9283V31.298C120 32.4025 119.44 32.9547 118.319 32.9547H110.913C109.792 32.9547 109.232 32.4025 109.232 31.298V29.7881H113.041V31.0673C113.041 31.3469 113.084 31.5287 113.169 31.6126C113.254 31.6825 113.431 31.7174 113.701 31.7174H115.446C115.716 31.7174 115.893 31.6825 115.978 31.6126C116.063 31.5287 116.106 31.3469 116.106 31.0673Z" fill="black"/>
<defs>
<linearGradient id="paint0_linear_11_23" x1="0" y1="26" x2="120" y2="26" gradientUnits="userSpaceOnUse">
<stop stop-color="#E05ED3"/>
<stop offset="1" stop-color="#C3C0EF" stop-opacity="0.6"/>
</linearGradient>
<linearGradient id="paint1_linear_11_23" x1="0" y1="26" x2="120" y2="26" gradientUnits="userSpaceOnUse">
<stop stop-color="#C3C0EF" stop-opacity="0.5"/>
<stop offset="1" stop-color="#E05ED3"/>
</linearGradient>
</defs>
</svg>
